<svg height="512" viewBox="0 0 64 64" width="512" xmlns="http://www.w3.org/2000/svg"><rect fill="#44add8" height="48" rx="3" width="50" x="7" y="10"/><path d="m57 13a3 3 0 0 0 -3-3h-44a3 3 0 0 0 -3 3v5h50z" fill="#3890ce"/><path d="m10 13h2v2h-2z" fill="#eb4042"/><path d="m14 13h2v2h-2z" fill="#fde700"/><path d="m18 13h2v2h-2z" fill="#88bf40"/><path d="m54 60h-47a3 3 0 0 1 -3-3v-3h24l3 2h4l3-2h16z" fill="#ccdce5"/><path d="m34 22h-6a3 3 0 0 0 -3 3v1h-2v-1a3 3 0 0 0 -3-3h-6a3 3 0 0 0 -3 3v4a3 3 0 0 0 3 3h6a3 3 0 0 0 3-3v-1h2v1a3 3 0 0 0 3 3h6a3 3 0 0 0 3-3v-4a3 3 0 0 0 -3-3zm-13 7a1 1 0 0 1 -1 1h-6a1 1 0 0 1 -1-1v-4a1 1 0 0 1 1-1h6a1 1 0 0 1 1 1v1h-2v2h2zm14 0a1 1 0 0 1 -1 1h-6a1 1 0 0 1 -1-1v-1h2v-2h-2v-1a1 1 0 0 1 1-1h6a1 1 0 0 1 1 1z" fill="#ffc119"/><path d="m12 36h24v4h-24z" fill="#ffc119"/><path d="m13 44h2v2h-2z" fill="#a1dbe8"/><path d="m17 44h20v2h-20z" fill="#a1dbe8"/><path d="m11 48h24v2h-24z" fill="#a1dbe8"/><path d="m13 5h30v2h-30z" fill="#ccdce5"/><path d="m45 5h2v2h-2z" fill="#ccdce5"/><circle cx="47" cy="29" fill="#ef5249" r="6"/><path d="m59 35a2 2 0 0 0 -2 2v-1a2 2 0 0 0 -4 0v-2a2 2 0 0 0 -4 0v-5a2 2 0 0 0 -4 0v10l-1.6.8a4.335 4.335 0 0 0 -.466 7.485l2.733 1.822a3 3 0 0 1 1.333 2.499v3.394h12v-5a18.949 18.949 0 0 0 2-8.472v-4.528a2 2 0 0 0 -2-2z" fill="#f5be9a"/><path d="m45 54h16v8h-16z" fill="#3890ce"/><path d="m56 57h2v2h-2z" fill="#7ecce6"/><g fill="#ec917f"><rect height="3" rx="1" width="2" x="56" y="37"/><rect height="4" rx="1" width="2" x="52" y="35"/><rect height="4" rx="1" width="2" x="48" y="34"/><rect height="4" rx="1" width="2" x="44" y="39"/></g></svg>