<svg enable-background="new 0 0 256 256" height="512" viewBox="0 0 256 256" width="512" xmlns="http://www.w3.org/2000/svg"><g id="Layer_1"><g><g><g><path d="m132.563 6c-10.936 0-19.8 8.865-19.8 19.8v11.811c0 10.935 8.865 19.8 19.8 19.8s19.8-8.865 19.8-19.8v-11.811c0-10.935-8.865-19.8-19.8-19.8z" fill="#feb69f"/></g><g><path d="m231.156 68.28c0 6.01-4.86 10.88-10.87 10.88h-50.23c-1.8 0-3.22 1.53-3.08 3.32l11.55 153.03 4.4 10.31c.84 1.98-.61 4.18-2.76 4.18h-23.17c-2.6 0-4.77-1.99-4.99-4.58l-6.08-71.98c-.59-6.98-6.44-12.28-13.36-12.28-6.97 0-12.78 5.34-13.36 12.28l-6.08 71.98c-.22 2.59-2.39 4.58-4.99 4.58h-23.17c-2.15 0-3.6-2.2-2.76-4.18l4.4-10.31 2.15-28.44c6.801 1.36 12.83-3.813 12.83-10.43 0-5.485-4.158-10.65-11.24-10.65l7.81-103.51c.14-1.79-1.28-3.32-3.08-3.32h-50.23c-5.99 0-10.87-4.86-10.87-10.88 0-6 4.86-10.87 10.87-10.87h175.44c5.93 0 10.87 4.8 10.87 10.87z" fill="#72c2e9"/></g><g><circle cx="135.761" cy="95.667" fill="#fc5d3d" r="10.659"/></g><g><circle cx="92.261" cy="30.683" fill="#fc5d3d" r="10.659"/></g><g><path d="m77.893 57.41v21.75h-33.05c-5.991 0-10.87-4.858-10.87-10.88 0-6 4.86-10.87 10.87-10.87z" fill="#feb69f"/></g><g><path d="m231.153 68.28c0 6.01-4.86 10.88-10.87 10.88h-33.05v-21.75h33.05c5.934 0 10.87 4.799 10.87 10.87z" fill="#feb69f"/></g><g><circle cx="175.662" cy="21.989" fill="#fc5d3d" r="10.659"/></g><g><g><path d="m68.58 157.021h-55.666c-3.323 0-5.403-3.599-3.737-6.473l8.872-15.371 18.961-32.839c1.657-2.883 5.817-2.883 7.474 0l27.833 48.21c1.666 2.874-.414 6.473-3.737 6.473z" fill="#f0c020"/></g></g><g><g><path d="m101.586 196.64c0 6.616-6.028 11.79-12.83 10.43-4.84-1-8.49-5.29-8.49-10.43 0-5.7 4.47-10.34 10.08-10.65 7.156 0 11.24 5.248 11.24 10.65z" fill="#fc5d3d"/></g></g></g><g><g><path d="m170.654 243.219h-9.732c-1.381 0-2.5-1.119-2.5-2.5s1.119-2.5 2.5-2.5h6.008c-.042-.218-10.849-143.483-10.866-143.705-.104-1.376.928-2.577 2.305-2.681 1.373-.111 2.577.928 2.681 2.305l10.796 143.002 1.108 2.598c.703 1.65-.511 3.481-2.3 3.481zm-12.852-156.364c-1.295 0-2.391-.999-2.49-2.312l-.452-5.983c-.104-1.376.928-2.577 2.305-2.681 1.377-.11 2.577.928 2.681 2.305l.452 5.983c.104 1.376-.928 2.577-2.305 2.681-.065.005-.128.007-.191.007z" fill="#c5e5fe"/></g><g><path d="m64.095 152.617h-33.301c-1.381 0-2.5-1.119-2.5-2.5s1.119-2.5 2.5-2.5h28.972l-21.184-36.692c-.69-1.196-.281-2.725.915-3.415 1.196-.692 2.725-.281 3.415.915l23.349 40.442c.962 1.666-.245 3.75-2.166 3.75zm-43.301 0h-3.396c-1.381 0-2.5-1.119-2.5-2.5s1.119-2.5 2.5-2.5h3.396c1.381 0 2.5 1.119 2.5 2.5s-1.119 2.5-2.5 2.5z" fill="#f8e5b0"/></g><path d="m125.105 47.57c1.37 0 2.5-1.12 2.5-2.5 0-2.73 2.23-4.95 4.96-4.96 2.73.01 4.95 2.23 4.96 4.96 0 1.38 1.12 2.5 2.5 2.5s2.5-1.12 2.5-2.5c0-5.48-4.47-9.95-9.96-9.96-5.49.01-9.96 4.48-9.96 9.96 0 1.38 1.12 2.5 2.5 2.5z"/><path d="m117.915 16.6c.35-.57.47-1.24.32-1.89s-.54-1.21-1.11-1.56c-1.13-.72-2.73-.35-3.44.78-.734 1.163-.41 2.699.78 3.45 1.129.706 2.679.418 3.45-.78z"/><path d="m92.265 43.84c7.25 0 13.15-5.9 13.15-13.16 0-7.25-5.9-13.16-13.15-13.16-3.143 0-6.029 1.111-8.294 2.956l-11.996-10.056c-.45-.38-1.02-.58-1.6-.58h-10.89c-1.38 0-2.5 1.12-2.5 2.5 0 1.37 1.12 2.5 2.5 2.5h9.98l11.295 9.467c-1.052 1.89-1.656 4.062-1.656 6.373.001 7.26 5.901 13.16 13.161 13.16zm-7.556-16.224 5.946 4.984c1.088.895 2.667.724 3.52-.31.89-1.06.75-2.64-.31-3.52l-5.941-4.981c1.259-.796 2.745-1.266 4.341-1.269 4.49.01 8.15 3.67 8.16 8.16-.01 4.49-3.67 8.15-8.16 8.16-4.5-.01-8.16-3.67-8.16-8.16 0-1.084.217-2.117.604-3.064z"/><path d="m127.605 26.5v-2.33c0-1.38-1.13-2.5-2.5-2.5-1.38 0-2.5 1.12-2.5 2.5v2.33c0 1.38 1.12 2.5 2.5 2.5 1.37 0 2.5-1.12 2.5-2.5z"/><path d="m142.525 26.5v-2.33c0-1.38-1.12-2.5-2.5-2.5s-2.5 1.12-2.5 2.5v2.33c0 1.38 1.12 2.5 2.5 2.5s2.5-1.12 2.5-2.5z"/><path d="m31.473 68.28c0 7.378 5.998 13.38 13.37 13.38h33.05.005 17.177c.32 0 .59.27.59.58 0 .076-7.654 101.496-7.66 101.572-5.883 1.343-10.231 6.595-10.24 12.828 0 2.628.798 5.188 2.253 7.349l-10.683 10.651h-9.86c-1.37 0-2.49 1.12-2.49 2.5s1.12 2.5 2.49 2.5h10.9c.65 0 1.29-.26 1.76-.73l11.422-11.389c.802.542 1.655 1.005 2.556 1.361l-1.969 26.028-4.24 9.93c-1.55 3.58 1.114 7.634 5.06 7.66h23.17c3.895 0 7.148-2.973 7.48-6.87l6.08-71.98c.47-5.6 5.24-9.99 10.87-9.99 5.62 0 10.4 4.39 10.87 9.99l6.08 71.98c.332 3.897 3.585 6.87 7.48 6.87h23.17c3.899-.026 6.616-4.012 5.06-7.66l-4.24-9.93-5.36-71.07c-.1-1.36-1.29-2.41-2.68-2.31-1.399.105-2.393 1.305-2.31 2.67v.01l5.4 71.49c.051.683.004.354 4.59 11.1.14.37-.142.7-.46.7h-23.17c-1.29 0-2.39-1.01-2.5-2.29l-6.08-71.98c-.704-8.286-7.631-14.57-15.85-14.57-8.281 0-15.169 6.355-15.85 14.57l-6.08 71.98c-.11 1.28-1.2 2.29-2.5 2.29h-23.17c-.38 0-.594-.424-.46-.69 4.588-10.761 4.539-10.429 4.59-11.11l1.959-25.916c7.2-.07 13.031-5.937 13.031-13.144 0-6.535-4.798-11.965-11.06-12.976.035-.466 7.64-100.956 7.64-101.424 0-3.07-2.51-5.58-5.59-5.58h-14.681v-16.75h104.34v16.75h-14.678c-3.107 0-5.806 2.593-5.57 6.04l2.557 33.859-19.529-15.015c.889-1.771 1.402-3.761 1.402-5.874 0-7.26-5.9-13.16-13.15-13.16-7.26 0-13.16 5.9-13.16 13.16 0 7.25 5.9 13.15 13.16 13.16 3.335-.005 6.375-1.266 8.695-3.321l23.088 17.745 1.587 21.015c.1 1.36 1.29 2.41 2.68 2.31 1.37-.11 2.41-1.31 2.3-2.69l-1.249-16.548 12.969 9.968c.44.34.97.52 1.52.52h13.68c1.37 0 2.5-1.12 2.5-2.5s-1.13-2.5-2.5-2.5h-12.83l-15.844-12.182-2.896-38.358v-.05c0-.31.27-.58.59-.58h50.228c7.311 0 13.372-5.949 13.372-13.38 0-7.409-6.055-13.361-13.37-13.37h-73.67c5.029-4.092 8.25-10.325 8.25-17.3v-11.809c0-12.29-10.01-22.3-22.3-22.3-3.78 0-7.51.96-10.79 2.78-1.132.614-1.681 2.109-.98 3.4.65 1.16 2.23 1.62 3.4.97 2.58-1.43 5.4-2.15 8.37-2.15 9.52.02 17.28 7.78 17.3 17.3v11.81c-.02 9.52-7.78 17.28-17.3 17.3-9.52-.02-17.28-7.78-17.3-17.3 0-13.064-.01-11.79.02-12.79.082-1.351-.946-2.545-2.35-2.63-1.4-.08-2.56.99-2.64 2.36-.048.992-.03.875-.03 13.06 0 6.975 3.218 13.208 8.246 17.3h-73.666c-7.3 0-13.372 5.941-13.372 13.37zm67.612 128.36c-.013 6.085-6.497 10.028-11.889 7.253l5.499-5.483c.97-.98.97-2.56 0-3.54-.94-.95-2.59-.95-3.53 0l-5.496 5.479c-.576-1.122-.904-2.384-.904-3.709 0-4.31 3.37-7.89 7.67-8.15 5.437 0 8.641 3.952 8.65 8.15zm44.35-98.231-6.15-4.729c-1.06-.81-2.69-.6-3.51.46-.84 1.1-.63 2.67.46 3.51l6.15 4.727c-1.315.911-2.906 1.449-4.62 1.453-4.49-.01-8.16-3.67-8.16-8.16s3.67-8.15 8.16-8.16c4.49.01 8.15 3.67 8.16 8.16-.002.961-.18 1.881-.49 2.739zm46.298-38.499h30.55c4.707 0 8.37 3.862 8.37 8.37 0 4.579-3.735 8.37-8.368 8.38h-30.552zm-114.34 16.75h-30.548c-4.61-.01-8.36-3.77-8.37-8.38.01-4.702 3.88-8.37 8.368-8.37h30.55z"/><path d="m172.185 151.56c-1.37.1-2.4 1.31-2.3 2.68.12 1.565 1.619 2.473 2.68 2.3 1.417-.106 2.41-1.337 2.31-2.68-.11-1.36-1.31-2.41-2.69-2.3z"/><path d="m13.515 241.33h34.51c1.37 0 2.5-1.12 2.5-2.5 0-1.37-1.13-2.5-2.5-2.5h-34.51c-1.38 0-2.5 1.13-2.5 2.5 0 1.38 1.12 2.5 2.5 2.5z"/><path d="m13.515 230.49h34.51c1.37 0 2.5-1.12 2.5-2.5s-1.13-2.5-2.5-2.5h-34.51c-1.38 0-2.5 1.12-2.5 2.5s1.12 2.5 2.5 2.5z"/><path d="m13.515 219.64h34.51c1.37 0 2.5-1.12 2.5-2.5 0-1.37-1.13-2.5-2.5-2.5h-34.51c-1.38 0-2.5 1.13-2.5 2.5 0 1.38 1.12 2.5 2.5 2.5z"/><path d="m249.235 244.77c0-1.38-1.12-2.5-2.5-2.5h-48.17c-1.38 0-2.5 1.12-2.5 2.5s1.12 2.5 2.5 2.5h48.17c1.38 0 2.5-1.12 2.5-2.5z"/><path d="m246.735 231.43h-48.17c-1.38 0-2.5 1.12-2.5 2.5 0 1.37 1.12 2.5 2.5 2.5h48.17c1.38 0 2.5-1.13 2.5-2.5 0-1.38-1.12-2.5-2.5-2.5z"/><path d="m246.735 220.58h-48.17c-1.38 0-2.5 1.12-2.5 2.5s1.12 2.5 2.5 2.5h48.17c1.38 0 2.5-1.12 2.5-2.5s-1.12-2.5-2.5-2.5z"/><path d="m198.565 208.62c-1.38 0-2.5 1.12-2.5 2.5s1.12 2.5 2.5 2.5h24.08c1.38 0 2.5-1.12 2.5-2.5s-1.12-2.5-2.5-2.5z"/><path d="m13.515 35.85h34.51c1.37 0 2.5-1.12 2.5-2.5s-1.13-2.5-2.5-2.5h-34.51c-1.38 0-2.5 1.12-2.5 2.5s1.12 2.5 2.5 2.5z"/><path d="m13.515 25.01h34.51c1.37 0 2.5-1.12 2.5-2.5s-1.13-2.5-2.5-2.5h-34.51c-1.38 0-2.5 1.12-2.5 2.5s1.12 2.5 2.5 2.5z"/><path d="m13.515 14.16h34.51c1.37 0 2.5-1.12 2.5-2.5s-1.13-2.5-2.5-2.5h-34.51c-1.38 0-2.5 1.12-2.5 2.5s1.12 2.5 2.5 2.5z"/><path d="m247.425 41.18h-34.51c-1.38 0-2.5 1.12-2.5 2.5s1.12 2.5 2.5 2.5h34.51c1.37 0 2.49-1.12 2.49-2.5s-1.12-2.5-2.49-2.5z"/><path d="m247.425 30.33h-34.51c-1.38 0-2.5 1.13-2.5 2.5 0 1.38 1.12 2.5 2.5 2.5h34.51c1.37 0 2.49-1.12 2.49-2.5 0-1.37-1.12-2.5-2.49-2.5z"/><path d="m247.425 19.49h-34.51c-1.38 0-2.5 1.12-2.5 2.5s1.12 2.5 2.5 2.5h34.51c1.37 0 2.49-1.12 2.49-2.5s-1.12-2.5-2.49-2.5z"/><path d="m188.579 24.49h12.835c1.38 0 2.5-1.12 2.5-2.5s-1.12-2.5-2.5-2.5h-12.834c-1.173-6.066-6.519-10.66-12.915-10.66-7.26 0-13.16 5.9-13.16 13.16 0 7.25 5.9 13.16 13.16 13.16 6.395 0 11.741-4.6 12.914-10.66zm-21.074-2.5c.01-4.49 3.67-8.15 8.16-8.16 3.618.008 6.694 2.387 7.759 5.66h-7.759c-1.38 0-2.5 1.12-2.5 2.5s1.12 2.5 2.5 2.5h7.759c-1.065 3.273-4.14 5.652-7.759 5.66-4.49-.01-8.15-3.67-8.16-8.16z"/><path d="m40.746 134.625c1.381 0 2.5-1.119 2.5-2.5v-7.25c0-1.381-1.119-2.5-2.5-2.5s-2.5 1.119-2.5 2.5v7.25c0 1.381 1.119 2.5 2.5 2.5z"/><path d="m38.246 140.891c0 1.381 1.119 2.5 2.5 2.5s2.5-1.119 2.5-2.5v-1.521c0-1.381-1.119-2.5-2.5-2.5s-2.5 1.119-2.5 2.5z"/><path d="m12.915 159.52h55.67c5.2-.028 8.546-5.691 5.89-10.22l-27.83-48.21c-2.595-4.564-9.211-4.53-11.8 0l-5.19 8.99c-.34.58-.43 1.25-.25 1.9.17.64.58 1.18 1.16 1.52 1.16.66 2.75.23 3.42-.92l5.19-8.99c.703-1.219 2.433-1.215 3.14-.01l27.84 48.22c.712 1.216-.213 2.72-1.57 2.72h-55.67c-1.35 0-2.283-1.436-1.58-2.71l12.65-21.91c.69-1.19.28-2.72-.92-3.41-1.15-.67-2.75-.24-3.41.91l-12.64 21.9c-2.647 4.472.649 10.192 5.9 10.22z"/><path d="m24.655 118.74c-.69 1.19-.28 2.73.91 3.42 1.156.67 2.707.299 3.42-.92.69-1.19.28-2.72-.92-3.41-1.15-.67-2.75-.24-3.41.91z"/><path d="m248.715 157.02c0-1.38-1.12-2.5-2.5-2.5h-33.47c-1.38 0-2.5 1.12-2.5 2.5s1.12 2.5 2.5 2.5h33.47c1.38 0 2.5-1.12 2.5-2.5z"/><path d="m246.215 143.68h-33.47c-1.38 0-2.5 1.12-2.5 2.5 0 1.37 1.12 2.5 2.5 2.5h33.47c1.38 0 2.5-1.13 2.5-2.5 0-1.38-1.12-2.5-2.5-2.5z"/><path d="m246.215 132.83h-33.47c-1.38 0-2.5 1.12-2.5 2.5s1.12 2.5 2.5 2.5h33.47c1.38 0 2.5-1.12 2.5-2.5s-1.12-2.5-2.5-2.5z"/></g></g></g></svg>